<?xml version="1.0" encoding="UTF-8" standalone="no"?>
<!DOCTYPE svg PUBLIC "-//W3C//DTD SVG 1.1//EN" "http://www.w3.org/Graphics/SVG/1.1/DTD/svg11.dtd">
<svg width="100%" height="100%" viewBox="0 0 297 297" version="1.1" xmlns="http://www.w3.org/2000/svg" xmlns:xlink="http://www.w3.org/1999/xlink" xml:space="preserve" xmlns:serif="http://www.serif.com/" style="fill-rule:evenodd;clip-rule:evenodd;stroke-linejoin:round;stroke-miterlimit:2;">
    <g transform="matrix(1,0,0,1,-1268,-2549)">
        <g id="ginko-web_dark" transform="matrix(0.500476,0,0,0.500476,2014.68,1982.29)">
            <rect x="-1490.89" y="1133.34" width="590.662" height="590.662" style="fill:none;"/>
            <g transform="matrix(2.6539e-16,4.33414,-0.698548,4.27737e-17,-842.908,-2519.69)">
                <path d="M891.103,593.909C891.103,615.033 888.343,632.157 884.939,632.157C879.406,632.157 871.328,632.157 865.79,632.157C862.376,632.157 859.608,614.986 859.608,593.803C859.608,545.473 859.608,462.947 859.608,415.019C859.608,405.071 860.245,395.531 861.379,388.497C862.513,381.463 864.05,377.511 865.654,377.511C871.305,377.511 879.688,377.511 885.27,377.511C888.491,377.511 891.103,393.716 891.103,413.705L891.103,593.909ZM882.059,413.517L868.682,413.517C866.868,413.517 865.384,423.339 865.384,435.344L865.384,460.843C865.384,472.848 866.868,482.67 868.682,482.67L880.399,482.67C880.982,482.67 881.454,485.601 881.454,489.216C881.454,491.702 881.454,494.383 881.454,496.253C881.454,497.591 881.629,498.676 881.845,498.676C881.962,498.676 882.059,498.676 882.059,498.676C883.873,498.676 885.357,488.854 885.357,476.849L885.357,435.344C885.357,423.339 883.873,413.517 882.059,413.517ZM869.286,512.533C869.286,511.195 869.111,510.111 868.896,510.111C868.779,510.111 868.682,510.111 868.682,510.111C866.868,510.111 865.384,519.933 865.384,531.937L865.384,574.611C865.384,586.616 866.868,596.438 868.682,596.438L882.059,596.438C883.873,596.438 885.357,586.616 885.357,574.611L885.357,547.944C885.357,535.939 883.873,526.117 882.059,526.117L870.292,526.117C870.025,526.117 869.769,525.46 869.581,524.29C869.392,523.12 869.286,521.533 869.286,519.879C869.286,517.308 869.286,514.482 869.286,512.533Z" style="fill:rgb(174,52,121);stroke:rgb(135,40,94);stroke-width:0.64px;"/>
            </g>
            <g transform="matrix(1.03659,0,0,0.460045,-1831.74,914.399)">
                <path d="M475.293,1161.17L512.815,1161.17L512.815,1175.45L505.348,1176.87L503.34,1180.83L503.34,1248.41C498.279,1252.37 493.364,1255.34 488.595,1257.31C483.826,1259.29 479.141,1260.28 474.54,1260.28C461.112,1260.28 450.215,1250.86 441.849,1232.01C433.482,1213.15 429.299,1188.6 429.299,1158.35C429.299,1128.37 433.577,1104.36 442.131,1086.31C450.685,1068.26 462.032,1059.24 476.171,1059.24C480.438,1059.24 484.84,1060.04 489.379,1061.64C493.918,1063.24 498.571,1065.65 503.34,1068.85L503.34,1118.05L493.928,1118.05L491.481,1087.37L489.536,1082.14C487.863,1080.54 486.148,1079.36 484.391,1078.61C482.634,1077.85 480.793,1077.47 478.869,1077.47C469.248,1077.47 461.687,1084.66 456.186,1099.04C450.685,1113.41 447.935,1133.18 447.935,1158.35C447.935,1184.17 450.748,1204.37 456.374,1218.93C462.001,1233.49 469.813,1240.77 479.81,1240.77C480.48,1240.77 481.421,1240.7 482.634,1240.56C483.847,1240.42 485.248,1240.21 486.838,1239.92L486.838,1180.83L484.83,1176.87L475.293,1175.45L475.293,1161.17Z" style="fill:rgb(254,253,249);fill-rule:nonzero;"/>
                <path d="M544.025,1113.1L550.237,1113.1L550.237,1238.23L552.119,1242.61L559.335,1243.74L559.335,1256.75L525.64,1256.75L525.64,1243.74L532.605,1242.61L534.425,1238.23L534.425,1138.27L525.954,1138.27L525.954,1126.68L544.025,1113.1ZM542.645,1047.08C545.447,1047.08 547.748,1049.08 549.547,1053.09C551.345,1057.09 552.245,1062.16 552.245,1068.29C552.245,1074.69 551.356,1079.95 549.578,1084.05C547.8,1088.15 545.531,1090.2 542.77,1090.2C540.093,1090.2 537.855,1088.17 536.056,1084.12C534.257,1080.07 533.358,1074.98 533.358,1068.85C533.358,1062.63 534.247,1057.45 536.025,1053.3C537.803,1049.15 540.009,1047.08 542.645,1047.08Z" style="fill:rgb(254,253,249);fill-rule:nonzero;"/>
                <path d="M571.408,1256.75L571.408,1243.74L577.996,1242.61L579.816,1238.23L579.816,1138.27L571.031,1138.27L571.031,1126.68L589.541,1113.1L595.753,1113.1L595.753,1130.21C600.647,1124.09 604.872,1119.61 608.428,1116.78C611.984,1113.95 615.079,1112.54 617.714,1112.54C623.571,1112.54 627.942,1116.5 630.828,1124.41C633.715,1132.33 635.158,1144.4 635.158,1160.61L635.158,1238.23L636.852,1242.61L643.629,1243.74L643.629,1256.75L612.193,1256.75L612.193,1243.74L617.714,1242.61L619.471,1238.23L619.471,1168.95C619.471,1158.2 618.551,1150.31 616.71,1145.27C614.87,1140.23 611.942,1137.7 607.926,1137.7C606.378,1137.7 604.59,1138.13 602.561,1138.98C600.532,1139.83 598.263,1141.05 595.753,1142.65L595.753,1238.23L597.51,1242.61L603.157,1243.74L603.157,1256.75L571.408,1256.75Z" style="fill:rgb(254,253,249);fill-rule:nonzero;"/>
                <path d="M654.823,1256.75L654.823,1244.02L661.537,1242.61L663.293,1238.23L663.293,1067.72L653.944,1067.72L653.944,1056.41L673.709,1042.84L679.106,1042.84L679.106,1181.82L681.929,1181.82L700.314,1133.46L699.435,1130.21L693.788,1128.8L693.788,1116.07L720.016,1116.07L720.016,1128.8L711.608,1131.06L696.988,1167.82L717.444,1242.61L724.973,1244.02L724.973,1256.75L700.314,1256.75L700.314,1245.44L685.443,1191.29L679.106,1191.29L679.106,1238.79L680.8,1242.89L687.2,1244.02L687.2,1256.75L654.823,1256.75Z" style="fill:rgb(254,253,249);fill-rule:nonzero;"/>
                <path d="M766.662,1127.67C761.977,1127.67 758.317,1132.71 755.681,1142.79C753.046,1152.88 751.728,1167.02 751.728,1185.21C751.728,1203.68 753.035,1218.06 755.65,1228.33C758.264,1238.6 761.893,1243.74 766.536,1243.74C771.389,1243.74 775.133,1238.75 777.768,1228.76C780.403,1218.76 781.721,1204.53 781.721,1186.06C781.721,1167.68 780.393,1153.35 777.737,1143.08C775.08,1132.8 771.389,1127.67 766.662,1127.67ZM767.164,1112.26C777.036,1112.26 784.879,1118.97 790.694,1132.4C796.508,1145.83 799.416,1164 799.416,1186.9C799.416,1208.58 796.383,1226.02 790.317,1239.22C784.252,1252.41 776.199,1259.01 766.16,1259.01C756.497,1259.01 748.706,1252.34 742.787,1239.01C736.868,1225.67 733.908,1208.11 733.908,1186.34C733.908,1164 736.941,1146.07 743.007,1132.54C749.072,1119.02 757.124,1112.26 767.164,1112.26Z" style="fill:rgb(254,253,249);fill-rule:nonzero;"/>
            </g>
            <g transform="matrix(1.12873,0,0,0.460045,-1888.29,1044.06)">
                <path d="M530.232,1255.9L510.41,1077.19L502.976,1073.23L502.976,1061.64L529.426,1061.64L529.426,1073.23L521.992,1075.5L521.013,1079.6L536.283,1213.34L555.241,1061.64L563.539,1061.64L582.843,1216.45L597.134,1080.73L595.866,1076.63L587.972,1073.23L587.972,1061.64L612.347,1061.64L612.347,1073.23L604.453,1077.19L585.725,1255.9L577.657,1255.9L557.719,1097.55L538.127,1255.9L530.232,1255.9Z" style="fill:rgb(151,151,151);fill-rule:nonzero;"/>
                <path d="M645.251,1167.54L645.251,1163.01C645.251,1151.32 644.204,1142.37 642.11,1136.15C640.016,1129.93 636.972,1126.82 632.977,1126.82C629.058,1126.82 625.668,1130.66 622.806,1138.34C619.944,1146.02 618.34,1155.75 617.994,1167.54L645.251,1167.54ZM655.796,1225.22L655.796,1241.2C652.3,1246.85 648.67,1251.14 644.905,1254.06C641.14,1256.98 637.356,1258.44 633.553,1258.44C625.754,1258.44 619.425,1251.87 614.566,1238.72C609.706,1225.57 607.276,1208.44 607.276,1187.33C607.276,1165.65 609.821,1147.95 614.911,1134.24C620.001,1120.53 626.542,1113.67 634.532,1113.67C641.063,1113.67 646.24,1118.78 650.062,1129.01C653.885,1139.24 655.796,1153.16 655.796,1170.79C655.796,1173.14 655.786,1174.93 655.767,1176.16C655.748,1177.39 655.7,1178.56 655.623,1179.69L617.418,1179.69L617.418,1182.95C617.418,1201.14 619.204,1215.54 622.777,1226.14C626.35,1236.74 631.171,1242.05 637.241,1242.05C640.045,1242.05 642.955,1240.68 645.971,1237.94C648.986,1235.21 652.261,1230.97 655.796,1225.22Z" style="fill:rgb(151,151,151);fill-rule:nonzero;"/>
                <path d="M680.805,1242.61C682.034,1242.7 683.196,1242.78 684.291,1242.82C685.386,1242.87 686.394,1242.89 687.316,1242.89C695.038,1242.89 700.704,1238.25 704.315,1228.97C707.927,1219.68 709.732,1205.1 709.732,1185.21C709.732,1167.21 708.128,1153.35 704.92,1143.64C701.713,1133.93 697.132,1129.08 691.177,1129.08C689.794,1129.08 688.238,1129.46 686.51,1130.21C684.781,1130.96 682.879,1132.14 680.805,1133.75L680.805,1242.61ZM676.31,1042.84L680.805,1042.84L680.805,1123.85C683.724,1120.46 686.519,1117.91 689.189,1116.21C691.859,1114.52 694.462,1113.67 696.997,1113.67C703.95,1113.67 709.578,1119.77 713.881,1131.98C718.184,1144.18 720.335,1160.09 720.335,1179.69C720.335,1204.77 717.444,1223.74 711.663,1236.6C705.881,1249.47 697.362,1255.9 686.106,1255.9L670.893,1255.9L670.893,1062.21L661.789,1062.21L661.789,1053.16L676.31,1042.84Z" style="fill:rgb(151,151,151);fill-rule:nonzero;"/>
            </g>
        </g>
    </g>
</svg>
